<svg xmlns="http://www.w3.org/2000/svg" viewBox="0 0 127.49 144.13"><defs><style>.cls-1{isolation:isolate;}.cls-2{mix-blend-mode:multiply;}.cls-3{fill:#e6d2ef;}.cls-4{fill:#fad992;}</style></defs><g class="cls-1"><g id="Hand-drawn_Icon_Set" data-name="Hand-drawn Icon Set"><g class="cls-2"><path class="cls-3" d="M730.82,961.55a.89.89,0,0,0-.51-.42c-.4-.13-.73.41-1,.17s-.26-.67-.64-.84-.73-.37-1.09-.56a.69.69,0,0,0-.53-.34c-.39-.33-.2-.91-.56-1.25a.4.4,0,0,1-.09-.22c.83-.49-.14-1.26.22-1.83.11-.17-.06-.33-.22-.45a.52.52,0,0,1-.21-.72c.23-.44.73-.58,1-1-.1-.22-.24-.49,0-.62s.67-.33.64-.86.22-.7.74-.79a3.6,3.6,0,0,1,2-.12c.31.12.56.16.66-.29,0-.19.3-.09.46,0a13.46,13.46,0,0,0,3,1.73c-.06.91,1.46.8,1.1,1.86.53.06.63-.61,1.1-.45-.31.59-.64,1.18-.94,1.78a1.11,1.11,0,0,0-.15.52,4.13,4.13,0,0,1-1.26,3.34c-.2.46.52.65.35,1.1h0c-.59.86-.74-.26-1.14-.3-.35-.23-.58,0-.83.2-.37.34-.85.48-1.24.78C731.05,962.53,730.93,962,730.82,961.55Z" transform="translate(-711.86 -919.24)"/><path class="cls-3" d="M768.93,1028.8c1.38-.12,2.38.76,3.46,1.42a1.42,1.42,0,0,1,.79,1.09,1.72,1.72,0,0,0,.35.75,2.86,2.86,0,0,1,.33,2.88,5.38,5.38,0,0,1-.23.92c0,.25-.27.31-.32.52h0a2.66,2.66,0,0,1-1,1,7.89,7.89,0,0,1-1.61.91,2.86,2.86,0,0,1-2.54-.33c-.2-.13-.38-.33-.58-.37-1.42-.28-1.88-1.45-2.39-2.57,0-.07,0-.18,0-.26.28-.08.38-.39.62-.51,1.39-.76,1.26-.81,1.71-2.16a1.61,1.61,0,0,0-.63-2,.86.86,0,0,1,0-.39h0a.36.36,0,0,1,.46-.29l.46-.27C768.28,1029.22,768.5,1028.69,768.93,1028.8Z" transform="translate(-711.86 -919.24)"/><path class="cls-3" d="M783.84,955c0,.31-.25.55-.09.92a2.84,2.84,0,0,1-.28,2.62c-.14.23-.28.46-.43.69a3,3,0,0,1-3.56,1.43c-.44-.12-.87-.27-1.3-.42-.68-.24-.92-.89-1.28-1.43a.94.94,0,0,1-.08-1.15c.12-.33.46.63.74-.22a16.72,16.72,0,0,0,.94-3.81,1.69,1.69,0,0,1,1.42-.31c1,.2,2,.17,2.75,1.06a.68.68,0,0,0,.61.27c.09-.24.27-.36.49-.24S783.91,954.83,783.84,955Z" transform="translate(-711.86 -919.24)"/><path class="cls-3" d="M718.78,1020.25c.33.25.68.48,1,.75a3.56,3.56,0,0,1,1,3.77,1.91,1.91,0,0,1-.82,1c-.61,0-.92.65-1.53.63l-.23.13c-1.06.13-1.9-.54-2.82-.91-.31-.45-1-.67-.75-1.44-.31-.18-.25-.59-.49-.8a.4.4,0,0,1-.12-.59,3.64,3.64,0,0,0,.61-2.33c0-.38.27-.59.64-.38.57.31.94,0,1.36-.22A1.75,1.75,0,0,1,718.78,1020.25Z" transform="translate(-711.86 -919.24)"/><path class="cls-3" d="M735.7,972.51a3.57,3.57,0,0,1-1.11.71,1.73,1.73,0,0,1-1.69-.11,4.85,4.85,0,0,1-2.31-2.1c-.21-.5-.48-.93,0-1.36.19-.15,0-.31,0-.47s0-.43.19-.43c.49,0,.65-.44,1-.67s.51-.11.59-.26c.26-.46.84-.57,1-1.08.45,0,.35.52.72.57a1.29,1.29,0,0,0,.88-.28H735a1.54,1.54,0,0,1,.46.11l.13.1a26.05,26.05,0,0,0,1,2.55.84.84,0,0,1,0,.52A10.9,10.9,0,0,1,735.7,972.51Z" transform="translate(-711.86 -919.24)"/><path class="cls-3" d="M741.29,1046.22a2.27,2.27,0,0,1,1.9.49.89.89,0,0,1,.6,1,4,4,0,0,1,.25,1.23,1.71,1.71,0,0,1-.48,1.52c-.2.23-.54.35-.53.74,0,.12-.08.22-.16.16-.56-.42-1.13.13-1.68-.09a.77.77,0,0,0-.75,0c-.22.12-.49-.11-.61-.4-.31-.79-.32-.79-.91-.63s-.6.16-.87-.5-.48-1.09-.76-1.61a1,1,0,0,1,0-1c0-.14.14-.31.24-.3C738.85,1046.93,740,1045.83,741.29,1046.22Z" transform="translate(-711.86 -919.24)"/><path class="cls-3" d="M775.39,1025.78a.31.31,0,0,1,0-.13c.81-.05,1.54-.41,2.32-.53a1.08,1.08,0,0,1,.9.28,9.1,9.1,0,0,0,1.44,1.26.62.62,0,0,1,.18.76c-.16.47-.27,1-.41,1.45a2.39,2.39,0,0,1-1.38,1.73c-.12.05-.28.11-.33.21-.22.4-.46.39-.9.27a5.77,5.77,0,0,1-2-1,2,2,0,0,1-.78-2.06,2.73,2.73,0,0,1,.34-1.18C775,1026.51,775.57,1026.38,775.39,1025.78Z" transform="translate(-711.86 -919.24)"/><path class="cls-3" d="M716.06,1028.24a7.14,7.14,0,0,1,2.43,1.6,1.6,1.6,0,0,1,.65,1c0,1,.61,2,.37,3.05-.14.07-.2,0-.28-.14-.3-.47-.41-.51-.6-.14a2.76,2.76,0,0,1-2.83,1.47c-.21-.1-.57-.26-.55-.36.32-1.23-.69-1.89-1.18-2.77,0-.17.07-.35.27-.41-.22,0-.22.23-.27.39a1.42,1.42,0,0,1-.22.91.79.79,0,0,1-.71.31c-.35-.07-.39-.4-.41-.65a1.74,1.74,0,0,1,.34-1.52c.78-.86,2.16-1.11,2.4-2.5C715.49,1028.32,715.81,1028.2,716.06,1028.24Z" transform="translate(-711.86 -919.24)"/><path class="cls-3" d="M732.05,1009.83a4.21,4.21,0,0,0,1.84.92,2.1,2.1,0,0,1,1.3,2.48c-.24.57-.24,1.3-.8,1.7-.3.21-.24,1.05-.87.61-.34-.24-1,.26-1-.52a2.61,2.61,0,0,1-1.61-2.26,1.92,1.92,0,0,1,.59-2A2.86,2.86,0,0,0,732.05,1009.83Z" transform="translate(-711.86 -919.24)"/><path class="cls-3" d="M743.4,950.75s.11,0,.13,0a4.53,4.53,0,0,1,.49,2.6c-.26.58-.92.79-1.19,1.38-.14.29-.54.27-.86.3a1.07,1.07,0,0,0-.65.16c-.27.22-.5.08-.71-.14s-.1-.16-.16-.23a4,4,0,0,1-1.35-2.16c-.23-.7-.23-.7.31-1.1l.46-.28c.24.76,1,.92,1.69.25C742.1,951.05,742.59,950.59,743.4,950.75Z" transform="translate(-711.86 -919.24)"/><path class="cls-3" d="M716.06,1028.24l-.56.38a.28.28,0,0,0-.13.34c0,.17.19.16.33.14a1,1,0,0,1,.39,0c.14.05.15.21.09.34-.26.51-.86,0-1.19.4s-.32.86-.84.76-.3.13-.31.4c0,.6-.61.12-.88.4,0,.46.06,1,.09,1.51a.55.55,0,0,0,.69-.42c.07-.27.09-.54.35-.69h0a1.91,1.91,0,0,0,.77.72c.9.5,1,.8.54,1.8-.18.43.34.47.4.76-.8-.12-1.63-.1-2.21-.9-.21-.3-.53.19-.84.11h0a2.37,2.37,0,0,1-.66-.17c-.19-.11-.41-.39-.06-.49.67-.2.56-.51.33-1a3.61,3.61,0,0,1,.75-3.16A5.69,5.69,0,0,1,716.06,1028.24Z" transform="translate(-711.86 -919.24)"/><path class="cls-3" d="M819.58,1037.68a2.5,2.5,0,0,1,2.12-.19c.46.1.33.62.67.81s.15.54,0,.81c-.2.53-.1,1.09-.58,1.6a2.15,2.15,0,0,1-2.9,0,5.35,5.35,0,0,1-.74-1.3.4.4,0,0,1,.07-.38C818.74,1038.56,819.06,1038,819.58,1037.68Z" transform="translate(-711.86 -919.24)"/><path class="cls-3" d="M817.34,988.48a2.31,2.31,0,0,1,.25-2.75,1.64,1.64,0,0,1,2.45,0,2,2,0,0,1,.38,2.76,3.21,3.21,0,0,1-2.53.62A1.38,1.38,0,0,1,817.34,988.48Z" transform="translate(-711.86 -919.24)"/><path class="cls-3" d="M742.36,1008.64c-.22-.16-.41-.06-.61,0-.73-.77-.35-1.37.22-1.93.18,0,0,0,.14,0s.27.14.43.08a2,2,0,0,1-.41-.08c-.35-.75-.76-1.29-1.69-.84-.42.2-.92.27-1-.46,0-1.24.25-1.56,1.26-1.87a2.79,2.79,0,0,1,3,.93c.08.35,0,.7.26,1a2.32,2.32,0,0,1-1,3.19C742.71,1008.81,742.53,1008.7,742.36,1008.64Z" transform="translate(-711.86 -919.24)"/><path class="cls-3" d="M767.08,1029.93c.27.51.88.46,1.26.81s.22.52,0,.55c-.63.11-.34.66-.51,1s-.12.61.14,1a.54.54,0,0,1-.4.91c-.48.07-.9.49-1.44.21-.12-.06-.21.1-.26.24-.18.52-.18.52-.64.13h0c.11-.33-.3-.55-.22-.87-.23-.19-.54-.28-.68-.58.43-1.28.88-2.55,2.19-3.19C766.7,1030,766.86,1029.87,767.08,1029.93Z" transform="translate(-711.86 -919.24)"/><path class="cls-3" d="M725.24,1022.89c.25,1,.49,1.07,1.6.55a4.16,4.16,0,0,0,.63,1.52,1.7,1.7,0,0,1-.87,2.23,1.67,1.67,0,0,1-1.79-.27,1.91,1.91,0,0,1-.84-1.78c.06-.63.06-1.18.64-1.56a3.85,3.85,0,0,0,.64-.69Z" transform="translate(-711.86 -919.24)"/><path class="cls-3" d="M754.17,1006c0-.6-.31-1.21.1-1.83a1.31,1.31,0,0,1,1.73-.61,2.92,2.92,0,0,1,1.62,1.58,1.2,1.2,0,0,1-.39,1.63c-.58.4-1.17.78-1.75,1.17-.39-.57-.78-1.13-1.16-1.7-.05-.08-.1-.16-.14-.24Z" transform="translate(-711.86 -919.24)"/><path class="cls-3" d="M759.05,1044.6a3.51,3.51,0,0,1-.16-1.76c0-.29.32-.44.59-.48a7,7,0,0,1,2.18.07.76.76,0,0,1,.37.18c.54.39.77,2.33.3,2.75a2.31,2.31,0,0,1-1.27.37c-.53.08-.95-.33-1.44-.4S759.36,1044.87,759.05,1044.6Z" transform="translate(-711.86 -919.24)"/><path class="cls-3" d="M725.18,1022.26a2.13,2.13,0,0,1-2.54.14,2.32,2.32,0,0,0-.78-.26c-.46-.08-.64-.35-.82-.79s-.2-.87.25-1.18a6,6,0,0,0,.6-.53c.62-.54.62-.54,1.5-.26.47,0,.65.53,1.06.67h0a1.07,1.07,0,0,1,.59,1c.37.39.2.82.14,1.25Z" transform="translate(-711.86 -919.24)"/><path class="cls-3" d="M835.33,1012.74a2,2,0,0,1-.18-1.1,1.34,1.34,0,0,1,1.06-1.45.4.4,0,0,1,.46.22c.18.28.35.56.53.83s.4.35.58.16c.4-.42.64-.34.9.16.16.33.4.63.57,1a.82.82,0,0,1-.27,1.08,4.2,4.2,0,0,1-1.14.36.61.61,0,0,1-.65-.43c-.22-.86-.79-.93-1.48-.8C835.58,1012.75,835.45,1012.73,835.33,1012.74Z" transform="translate(-711.86 -919.24)"/><path class="cls-3" d="M778.5,953.67a3.63,3.63,0,0,1-.43,3.31c-.18.29-.56.46-.26.91.08.12,0,.36,0,.54s-.14.34-.36.3-.41-.16-.32-.37,0-.51-.26-.66a4.66,4.66,0,0,0-1.05-2.46c-.47-.45-.18-1,.26-1.39a3.54,3.54,0,0,0,1.55-.6h0c.36,0,.59.33.92.41Z" transform="translate(-711.86 -919.24)"/><path class="cls-3" d="M766.85,1002.13a4.89,4.89,0,0,1,1.91-1.17c.31-.12.49,0,.7.23a2.76,2.76,0,0,1,.43,2.51,1.08,1.08,0,0,1-1.18.75,10.14,10.14,0,0,1-2.13-.16C766,1003.46,767,1002.89,766.85,1002.13Z" transform="translate(-711.86 -919.24)"/><path class="cls-3" d="M798.91,998.73c.19,0,.45-.11.54,0,.55.51.94.43,1.29-.19a.37.37,0,0,1,.59-.09c.51.45,1.23.34,1.78.88a3.21,3.21,0,0,1-1.13,2.23.82.82,0,0,1-.46.24,1.69,1.69,0,0,1-1.86-1.52C799.61,999.73,799.61,999.73,798.91,998.73Z" transform="translate(-711.86 -919.24)"/><path class="cls-3" d="M814.23,1006.75c.17-.26.29-.56.6-.71s.56,0,.54.31a1.77,1.77,0,0,0,.34,1,2.54,2.54,0,0,1,0,2.62c-.5.84-1,1.14-1.84,1a2.93,2.93,0,0,1-1.3-.77c-.29-.27-.61-.61-.42-1.1.77-1.12,1.35-1.08,2.4.27C814.16,1008.39,814.73,1007.54,814.23,1006.75Z" transform="translate(-711.86 -919.24)"/><path class="cls-3" d="M760.88,974.89c-.08.05-.15.11-.23.15-.3.12-.25.61-.39.64s-.6-.15-.91-.18a3.27,3.27,0,0,1-1.23-.63.61.61,0,0,1-.34-.82c.22-.42.06-.66-.23-1s-.33-.49-.07-.73.38-.78.94-.62a2.52,2.52,0,0,0,.94.2c1.08-.14,1.47.73,2,1.39.25.33,0,.71-.13,1a1.37,1.37,0,0,1-1.24-1C759,974.68,760.72,974.31,760.88,974.89Z" transform="translate(-711.86 -919.24)"/><path class="cls-3" d="M716.18,983.24c-.46.07-.95,0-1.09.55,0,.06-.28,0-.28-.18,0-.73-.41-1.34-.47-2.07a1.48,1.48,0,0,1,.58-1.42,1.56,1.56,0,0,1,1.56-.12,2.34,2.34,0,0,1,1,1.48c.11.37-.19.69-.47.92S716.29,982.82,716.18,983.24Z" transform="translate(-711.86 -919.24)"/><path class="cls-3" d="M736.91,984.83a3.6,3.6,0,0,0,.24.6c.12.23.48.34.43.66s-.5.28-.73.49a1.3,1.3,0,0,1-.86.31,1.68,1.68,0,0,1-1.32-.6,2.26,2.26,0,0,1-.15-2.07,1.42,1.42,0,0,1,2,0A7.19,7.19,0,0,1,736.91,984.83Z" transform="translate(-711.86 -919.24)"/><path class="cls-3" d="M822,1017.89c-.62.42-1,.37-1.82-.22s-.74-.7-.36-1.45a2.22,2.22,0,0,1,1.92-1.06c.36-.06.74.33.83.74,0,.09,0,.19,0,.28C822.75,1017.05,822.62,1017.48,822,1017.89Z" transform="translate(-711.86 -919.24)"/><path class="cls-3" d="M772.55,1017.58c1.35.79,1.66,1.93.79,2.85a1.87,1.87,0,0,1-2.2.39,2.14,2.14,0,0,1-.62-2.48c.06-.11.32-.11.49-.16C772.17,1019,772.3,1018.94,772.55,1017.58Z" transform="translate(-711.86 -919.24)"/><path class="cls-3" d="M739.42,1005.45c.36.42.74.54,1.09,0,.13-.18.16-.45.47-.21a2.53,2.53,0,0,0,1.41.41c-.14.42-.56.65-.22,1.06a2,2,0,0,0-.42,1.91c-.81-.24-1.69-.24-2.3-1-.16-.2-.35-.38-.21-.6C739.57,1006.56,739.21,1006,739.42,1005.45Z" transform="translate(-711.86 -919.24)"/><path class="cls-3" d="M785.1,933.28c.35-.18.65-.55,1.11-.38a3.66,3.66,0,0,1,1.4.9,1.87,1.87,0,0,1,0,1.85,9.82,9.82,0,0,1-.81.9c-.54-.26-1-.6-1.59-.81a.88.88,0,0,1-.27-1.59C785.56,933.84,785.15,933.58,785.1,933.28Z" transform="translate(-711.86 -919.24)"/><path class="cls-3" d="M751.14,966.94c0-.28.13-.41.33-.53.77.22.95.94,1.27,1.54,0,.59.48.44.77.38s.16-.35.08-.56a1.16,1.16,0,0,1-.09-.4c0-.06.11-.15.17-.16a.31.31,0,0,1,.23.12,1,1,0,0,1,.16.37,3.91,3.91,0,0,1-.35,2.29c-.27.59-.58.69-1.2.42s-.92-.56-.67-1.38c.12-.38.16-.56-.27-.7a.52.52,0,0,1-.36-.77A.69.69,0,0,0,751.14,966.94Z" transform="translate(-711.86 -919.24)"/><path class="cls-3" d="M805.1,956.73c-1,.31-1.73-.36-2.6-.63a1.26,1.26,0,0,1,0-.38c.11-.43-.27-1.05.23-1.28a4,4,0,0,1,2-.41.54.54,0,0,1,.47.45c.08.36.24.79,0,1.08S805.25,956.37,805.1,956.73Z" transform="translate(-711.86 -919.24)"/><path class="cls-3" d="M752.6,1008.62c.22-.18.36-.32.14-.67s-.19-.63.33-.94.58-.23.9.2.45.95,1,1.11c.21,0,.3.21.16.41s-.17.53-.43.39-.35-.36-.43,0-.12.72-.18,1.14c-.56-.22-1-.42-1.51-.09a.47.47,0,0,1-.61-.18c-.13-.2,0-.33.14-.47a1.52,1.52,0,0,0,.47-1Z" transform="translate(-711.86 -919.24)"/><path class="cls-3" d="M785.1,933.28a.56.56,0,0,0,.43.31c.19,0,.3-.5.5-.1.1.2-.12.44-.31.56a3.68,3.68,0,0,1-.5.18c-.31.14-.52.34-.36.76s.13.54.62.48c.68-.07,1,.56,1.32,1.08h-1.61c0,.2-.24.41-.35.33-.83-.54-1.49-.07-2.18.24a.8.8,0,0,1,0-.9c.21-.35.37-.8.79-.86s.62-.39.73-.81a7.07,7.07,0,0,1,.4-1C784.64,933.28,784.9,933.34,785.1,933.28Z" transform="translate(-711.86 -919.24)"/><path class="cls-3" d="M722.17,991.53a1.89,1.89,0,0,1,1.35,2c-.09,2-1.28,2.09-2.64,1.57a1.32,1.32,0,0,1-.74-.62c.06-.22-.13-.41-.08-.62h0c.56.06,1-.37,1.54-.35,1,0,.67-.52.32-1a1.17,1.17,0,0,1-.16-.36C721.78,991.81,721.83,991.56,722.17,991.53Z" transform="translate(-711.86 -919.24)"/><path class="cls-3" d="M821,1007.47a2.33,2.33,0,0,1,0,1.76c-.23.68-.74.86-1.44.51-.27-.14-.68,0-.81-.42a2.23,2.23,0,0,1-.07-1.35.91.91,0,0,1,1-.72C820.12,1007.29,820.56,1007.39,821,1007.47Z" transform="translate(-711.86 -919.24)"/><path class="cls-3" d="M781.6,992.33a1.72,1.72,0,0,1,1,1.63.59.59,0,0,1-.18.49c-.21.22-.41.46-.62.68-.94,1-1.82.92-2.78-.21.36-.92.72-1.73,2-1.5C781.84,993.57,781.51,992.75,781.6,992.33Z" transform="translate(-711.86 -919.24)"/><path class="cls-3" d="M743.4,950.75c-.12.63-.93-.14-1,.51-.55,0-.4.68-.73.91a.6.6,0,0,1-.37.13c-.53-.07-1.06-.22-1.5.23,0,0-.27,0-.37-.14s-.12-.32,0-.46.48-.29.44-.63c.19-.3.32-.68.75-.68a2.5,2.5,0,0,0,1.31-.62c.39.11.86-.17,1.17.3Z" transform="translate(-711.86 -919.24)"/><path class="cls-3" d="M781.6,992.33c.23.41.63.75.08,1.26-.23.21-.29.37-.6.17s-.41,0-.59.15-.46-.1-.7-.18c-.22.16-.08.4-.06.59.1.76.11.76-.69.6-.33-.57-.32-.57,0-1.3.12-.28.2-.58.3-.86.71-.26,1.25-1,2.16-.67C781.51,992.17,781.56,992.25,781.6,992.33Z" transform="translate(-711.86 -919.24)"/><path class="cls-3" d="M741.29,1046.22a1.88,1.88,0,0,0-.65.11,1.67,1.67,0,0,1-1.68.22l.22,1a.25.25,0,0,1-.16.32.3.3,0,0,1-.34-.16l-.06-.13c-.41-.88-.41-.88-1.33-.5-.08-.92.79-1.3,1-2a.86.86,0,0,1,.07-.1l1.53.3c0,.65.44.7.93.72C741,1045.92,741.15,1046.11,741.29,1046.22Z" transform="translate(-711.86 -919.24)"/><path class="cls-3" d="M814.23,1006.75c.81.24.82.25.66.83a2.37,2.37,0,0,0-.1,1.74c.15.34-.11.67-.4.88-.18-.11-.12-.25-.14-.37a2.71,2.71,0,0,0-.1-.79c-.43-.06-.65-.55-1.07-.55-.22,0-.47,0-.49.32s-.2.38-.47.22a1.38,1.38,0,0,1,.74-1.48c.27-.14.63-.36.67-.6C813.65,1006.31,814,1006.85,814.23,1006.75Z" transform="translate(-711.86 -919.24)"/><path class="cls-3" d="M766.62,1030.21a2.17,2.17,0,0,0-1,1.16,10.28,10.28,0,0,1-1.28,1.91c-.68.06-.88-.08-.74-.59s.39-.84-.16-1.19c0,0,0-.15,0-.23.89,0,1-.89,1.55-1.26,0,0,.17,0,.25,0,.44.14.61-.54,1.07-.31l.16.22C766.63,1030,766.67,1030.07,766.62,1030.21Z" transform="translate(-711.86 -919.24)"/><path class="cls-3" d="M767.46,927.57c.88-.55,1.28-.47,1.8.32s.33,1-.38,1.46c-.51.32-1.61.31-1.77-.06a3.33,3.33,0,0,1-.17-1.1C766.91,927.77,767.32,927.73,767.46,927.57Z" transform="translate(-711.86 -919.24)"/><path class="cls-3" d="M791.36,1033.7c-1,.06-2,.37-3-.6a2.42,2.42,0,0,0,1.39-1.83c.2,0,.3,0,.37,0,.39.24,1,.43,1.09.77A4.36,4.36,0,0,1,791.36,1033.7Z" transform="translate(-711.86 -919.24)"/><path class="cls-3" d="M741.45,933.69c-.24-.46-.18-1.14-.92-1.24-.13,0-.19-.2-.13-.34a1,1,0,0,0-.08-.79c-.28-.68-.18-.9.4-1.16s.87,0,.84.6.22.66.54.86c1,.52.22,1.21.19,1.8S741.82,933.84,741.45,933.69Z" transform="translate(-711.86 -919.24)"/><path class="cls-3" d="M750.8,1030c.19-.23.23-.62.68-.63.39.77.79,1.54,1.17,2.33.07.15.07.42-.22.34a.46.46,0,0,0-.46.14c-.26.22-.38.71-.81.6a1.71,1.71,0,0,1-1-.72l-.31-.47A1.69,1.69,0,0,0,750.8,1030Z" transform="translate(-711.86 -919.24)"/><path class="cls-3" d="M805,973.12c.23-.28.62-.22.78-.53s.44-.36.74-.05a1.72,1.72,0,0,0,1.09.51,2.14,2.14,0,0,0-.38,1.09c0,.4-.35.61-.72.68a1.12,1.12,0,0,1-1.17-.55A8.34,8.34,0,0,1,805,973.12Z" transform="translate(-711.86 -919.24)"/><path class="cls-3" d="M715.41,1025.65c.24-.12.56.4.78-.15a.35.35,0,0,1,.67,0c0,.13,0,.28.06.41s0,.55.29.54.31-.39.43-.63c.34.12.39.49.59.72a.75.75,0,0,0-.86.65c-.2.79-.76.9-1.37.37-.24-.21-.27-.57-.62-.71s-.39-.24-.17-.42S715.64,1026,715.41,1025.65Z" transform="translate(-711.86 -919.24)"/><path class="cls-3" d="M785.94,944.07c-.5.3-.66.28-.94-.09-.52-.67-.58-1.08-.21-1.49s.68-.31.7-.77c0-.21.16-.2.26-.09.35.39,1.06.41,1,1.17A1.4,1.4,0,0,1,785.94,944.07Z" transform="translate(-711.86 -919.24)"/><path class="cls-3" d="M770.38,980.21a1.14,1.14,0,0,1,0-.41,2.41,2.41,0,0,1,.24-.63c.3-.57.72-.89,1-.74a1.77,1.77,0,0,1,.84,1.21,1.46,1.46,0,0,1-.11.66c-.14.69-.41.84-1,.51C771,980.64,770.7,980.41,770.38,980.21Z" transform="translate(-711.86 -919.24)"/><path class="cls-3" d="M775.59,920c.23.35.58.72.31,1.13s-.8.3-1.24.23a1.19,1.19,0,0,1-.91-.77.78.78,0,0,1,.35-1.15c.52-.34.85-.32,1.2.09A3.31,3.31,0,0,1,775.59,920Z" transform="translate(-711.86 -919.24)"/><path class="cls-3" d="M782.66,937.12c.41-.25.53-.73.81-1.08s.55-.3.67.11c.21.68.59.62,1.05.4-.15,1.2-.51,1.6-1.41,1.61C783.09,938.16,782.77,937.86,782.66,937.12Z" transform="translate(-711.86 -919.24)"/><path class="cls-3" d="M741.45,933.69c.14-.18,1,.29.44-.5-.18-.27,0-.43.18-.55.49-.31.26-.67,0-1a1.63,1.63,0,0,0,.31-.27c.2-.27.43-.22.48.06.13.63.36,1.07,1.12.8-.3,1.32-.78,1.81-1.75,1.91A.82.82,0,0,1,741.45,933.69Z" transform="translate(-711.86 -919.24)"/><path class="cls-3" d="M773.38,958.17a1.15,1.15,0,0,1,1.68.32,1,1,0,0,1-.32,1.33,1.45,1.45,0,0,1-1.71-.49A.82.82,0,0,1,773.38,958.17Z" transform="translate(-711.86 -919.24)"/><path class="cls-3" d="M742.36,1008.64c.44-.06.9,0,1-.68,0-.32.36-.6.57-.89.53-.75.46-1-.41-1.4-.09,0-.18,0-.28-.09-.1-.45.3-.71.45-1.07.56.49.71,1.27,1.24,1.79.09.1.22.29.07.35-.62.21-.16.78-.36,1.09s-.82.39-.68,1c0,0-.06.1-.06.1C743.38,1008.58,742.8,1009.31,742.36,1008.64Z" transform="translate(-711.86 -919.24)"/><path class="cls-3" d="M747.28,944.72a1.22,1.22,0,0,1-1.48,0c-.29-.26-.49-.57-.24-1a7.92,7.92,0,0,1,.42-.69.53.53,0,0,1,.73-.12,2.93,2.93,0,0,1,.95,1C747.86,944.28,747.53,944.58,747.28,944.72Z" transform="translate(-711.86 -919.24)"/><path class="cls-3" d="M721.85,992.06l.15.24a1.39,1.39,0,0,1-2,1c-.24-.13-.44-.33-.73-.32-.21-.35-.18-.66.22-.74s.69-.13.77-.58a.3.3,0,0,1,.4-.24,1,1,0,0,0,.78-.11A.63.63,0,0,1,721.85,992.06Z" transform="translate(-711.86 -919.24)"/><path class="cls-3" d="M757.35,983.3c.12.42-.18.88.32,1.25s.09.69-.1,1a.91.91,0,0,1-1,.32c-.39-.07-.48-.32-.6-.65a.87.87,0,0,1,.35-1.18C756.68,983.81,757,983.56,757.35,983.3Z" transform="translate(-711.86 -919.24)"/><path class="cls-3" d="M722.81,981.49a.8.8,0,0,1-1.2-.19c-.29-.42-.18-1.52.16-1.66a1.45,1.45,0,0,1,1.41.59A.82.82,0,0,1,722.81,981.49Z" transform="translate(-711.86 -919.24)"/><path class="cls-3" d="M719.24,993c.09,0,.2-.12.25-.09.54.3,1.08.12,1.62.15.7,0,.66-.45.89-.77.9.62,1,.87.49,1.41a.45.45,0,0,1-.56.17,6.24,6.24,0,0,0-.82-.17,2.53,2.53,0,0,1,0,.38,2,2,0,0,1-.15.33c-.07,0-.18-.09-.19-.15,0-.45-.33-.49-.68-.44A1.76,1.76,0,0,0,719.24,993Z" transform="translate(-711.86 -919.24)"/><path class="cls-3" d="M757.35,1012c-.45.21-.9.27-1-.07a1.45,1.45,0,0,0-1.31-1.21.24.24,0,0,1-.1-.35c0-.07.13-.16.19-.15a7.44,7.44,0,0,0,1.89.17c.36,0,.47.49.52.88S757.61,1011.94,757.35,1012Z" transform="translate(-711.86 -919.24)"/><path class="cls-3" d="M752.46,971.12c1.06,0,1.17.14,1,1.26a1.2,1.2,0,0,1-.87,1,.74.74,0,0,1-.93-.39C751.8,972.27,751.81,971.54,752.46,971.12Z" transform="translate(-711.86 -919.24)"/><path class="cls-3" d="M774.25,928.69c-.3.15-.4.48-.59.72a.75.75,0,0,1-1,.25,1,1,0,0,1-.28-1.21.8.8,0,0,1,1.1-.47,1.28,1.28,0,0,1,.78.71Z" transform="translate(-711.86 -919.24)"/><path class="cls-3" d="M760.88,974.89a1,1,0,0,0-.26-.08c-.27,0-.54.27-.78.07a4.37,4.37,0,0,1-.72-.82c-.08-.11-.07-.34.07-.35.65-.07.48-.7.72-1,0,0,.16,0,.24,0a.19.19,0,0,1,.11.06c-.38,1,.64,1.12,1,1.69A.5.5,0,0,1,760.88,974.89Z" transform="translate(-711.86 -919.24)"/><path class="cls-3" d="M797.44,970.77c-.29-.37-.1-.81.58-1.33a.67.67,0,0,1,.91.23,1.1,1.1,0,0,1-.26,1.37C798.42,971.27,797.71,971.12,797.44,970.77Z" transform="translate(-711.86 -919.24)"/><path class="cls-3" d="M766.31,1029.75c-.35.12-.6.56-1.07.31a.49.49,0,0,0,.27-.56,14.4,14.4,0,0,0-.38-1.47c-.3-.8.19-1.12.83-1.66A6.26,6.26,0,0,0,766.31,1029.75Z" transform="translate(-711.86 -919.24)"/><path class="cls-3" d="M808.23,1014.14a2.33,2.33,0,0,1-.15-.42.63.63,0,0,1,.22-.61c.34-.29.82-.13,1.28.43a.69.69,0,0,1,0,1.07.77.77,0,0,1-1.17-.25Z" transform="translate(-711.86 -919.24)"/><path class="cls-3" d="M754.85,998.79c-.31-.48-.26-.72.2-1s.85-.26,1.09,0a1.13,1.13,0,0,1-.18,1.36C755.63,999.45,755.17,999.29,754.85,998.79Z" transform="translate(-711.86 -919.24)"/><path class="cls-3" d="M721.4,979.21a8.72,8.72,0,0,1-.52.72.64.64,0,0,1-1,.09,1,1,0,0,1-.35-1c.1-.35.43-.49.87-.4A1.56,1.56,0,0,1,721.4,979.21Z" transform="translate(-711.86 -919.24)"/><path class="cls-3" d="M772.55,1017.58a1.19,1.19,0,0,1,.28,1c-.11.55-.28.68-.82.51s-.92-.33-1-.92h0a1.49,1.49,0,0,1,1.16-.7Z" transform="translate(-711.86 -919.24)"/><path class="cls-3" d="M730.82,961.55c.46.55.46.54.82.18.07-.07.17-.11.19-.18.22-.62.69-.32,1.09-.28a.71.71,0,0,1,0,.14c-.13.43.15,1-.26,1.3s-.71-.34-1-.29C730.85,962.55,730.8,962.12,730.82,961.55Z" transform="translate(-711.86 -919.24)"/><path class="cls-3" d="M750.8,1030c.12.44.25.87.37,1.3-.42.35-.9.18-1.32.29a2.93,2.93,0,0,1-.53-.09.46.46,0,0,1-.33-.41c0-.15.15-.18.27-.24C749.78,1030.61,750.29,1030.32,750.8,1030Z" transform="translate(-711.86 -919.24)"/><path class="cls-3" d="M783.84,955c-.06-.34-.14-.64-.56-.35,0-.59-.21-1.21.36-1.66a1.67,1.67,0,0,1,1.09,1.69Z" transform="translate(-711.86 -919.24)"/><path class="cls-3" d="M752.74,968c-.25-.2-.87.07-.7-.68.05-.22-.37-.57-.57-.86a5.21,5.21,0,0,1,.55-.36c.21-.09.29-.54.62-.26a.63.63,0,0,1,.2.74C752.64,967,753.17,967.52,752.74,968Z" transform="translate(-711.86 -919.24)"/><path class="cls-3" d="M799.05,1050.53a1,1,0,0,1,.34-1.3.37.37,0,0,1,.49.1,1,1,0,0,1-.22,1.57C799.33,1051.11,799.2,1050.73,799.05,1050.53Z" transform="translate(-711.86 -919.24)"/><path class="cls-3" d="M735.7,972.51a1.87,1.87,0,0,0,.07-.4,1.85,1.85,0,0,1,.83-1.81,1,1,0,0,1-.11,1.15c-.12.2-.18.43.18.49.13,0,.29.06.29.23a.34.34,0,0,1-.32.36C736.33,972.55,736,972.52,735.7,972.51Z" transform="translate(-711.86 -919.24)"/><path class="cls-3" d="M776.44,929.67l-.61,0c-.46-.2-.33-.53-.21-.86.19-.11.37-.24.57-.34a.43.43,0,0,1,.5.06,4.27,4.27,0,0,1,.67,1.53C776.8,930.55,776.83,929.61,776.44,929.67Z" transform="translate(-711.86 -919.24)"/><path class="cls-3" d="M766.85,1002.13a1.23,1.23,0,0,1-.05,1.28,1.25,1.25,0,0,0-.22.88c-.6-.11-.72-.65-.92-1.09-.1-.23.12-.42.33-.52S766.71,1002.55,766.85,1002.13Z" transform="translate(-711.86 -919.24)"/><path class="cls-3" d="M820.75,985.4c.56.26.94.41,1.3.6s.23.55.16.85-.41.25-.66.18a.74.74,0,0,1-.6-.67C820.91,986.1,820.84,985.83,820.75,985.4Z" transform="translate(-711.86 -919.24)"/><path class="cls-3" d="M772,920.46c.26-.16.53-.24.77.12s.25.84,0,1-1.11,0-1.21-.21S771.54,920.72,772,920.46Z" transform="translate(-711.86 -919.24)"/><path class="cls-3" d="M777.74,921.86a.73.73,0,0,1-1.08-.18.55.55,0,0,1,.09-.75c.27-.24,1,0,1.2.35A.45.45,0,0,1,777.74,921.86Z" transform="translate(-711.86 -919.24)"/><path class="cls-3" d="M804,1063.07a.61.61,0,0,1,.22-.81.84.84,0,0,1,1,.25.59.59,0,0,1-.23.8A.81.81,0,0,1,804,1063.07Z" transform="translate(-711.86 -919.24)"/><path class="cls-3" d="M733.75,961.07a.52.52,0,0,1,.45.22c.21.27.45.21.69.08.28.21.7.35.38.83a3.17,3.17,0,0,0-.26.57C734.11,962.53,734.11,961.67,733.75,961.07Z" transform="translate(-711.86 -919.24)"/><path class="cls-3" d="M789.14,1004.71a1,1,0,0,1,1.07-.36c.22.07.47.1.43.42s-.08.62-.52.64S789.45,1005,789.14,1004.71Z" transform="translate(-711.86 -919.24)"/><path class="cls-3" d="M718.78,1020.25a1.66,1.66,0,0,1-.51-.06,3.61,3.61,0,0,0-1.61-.3l.33-.22c.29-.16.33-.74.79-.57A1.34,1.34,0,0,1,718.78,1020.25Z" transform="translate(-711.86 -919.24)"/><path class="cls-3" d="M778.09,938.69c-.12.23-.37.19-.56.26s-.55.19-.67-.16a.72.72,0,0,1,.19-.75c.22-.23.5-.12.72.06A.76.76,0,0,1,778.09,938.69Z" transform="translate(-711.86 -919.24)"/><path class="cls-3" d="M724.45,1020.05a.49.49,0,0,1-.77-.21c-.09-.16-.2-.31-.29-.46,0-.5.33-.58.73-.49s.38.33.34.63A4.64,4.64,0,0,0,724.45,1020.05Z" transform="translate(-711.86 -919.24)"/><path class="cls-3" d="M801.58,925.74c.67-.14.84.38,1.25.34.21,0,.28.22.26.41a.57.57,0,0,1-.4.51.34.34,0,0,1-.44-.22A2.44,2.44,0,0,0,801.58,925.74Z" transform="translate(-711.86 -919.24)"/><path class="cls-3" d="M777.58,953.25c-.41.19-.23.62-.33.93a.5.5,0,0,1-.23.28.22.22,0,0,1-.29-.19c-.08-.43-.37-.46-.7-.42A1.21,1.21,0,0,1,777.58,953.25Z" transform="translate(-711.86 -919.24)"/><path class="cls-3" d="M752.46,971.12c-.28.6-.2,1.37-.8,1.82l-.15-.22a.43.43,0,0,1-.29-.5l.08-.38a1.51,1.51,0,0,1,1.16-.72Z" transform="translate(-711.86 -919.24)"/><path class="cls-3" d="M773.31,1036.38c0-.27.12-.4.32-.52a.58.58,0,0,0,.5,0c.16-.06.35-.1.45.12a.55.55,0,0,1-.13.61.39.39,0,0,1-.47.14C773.75,1036.65,773.62,1036.34,773.31,1036.38Z" transform="translate(-711.86 -919.24)"/><path class="cls-3" d="M805,1018.69a.62.62,0,0,1-.78-.24c-.2-.31,0-.5.21-.66s.45-.19.57.06A1,1,0,0,1,805,1018.69Z" transform="translate(-711.86 -919.24)"/><path class="cls-3" d="M724.15,991.63a9,9,0,0,1-.53-1c-.11-.25.08-.44.31-.48a.37.37,0,0,1,.42.28,1.4,1.4,0,0,1-.2,1.16Z" transform="translate(-711.86 -919.24)"/><path class="cls-3" d="M743.1,950.3s-.09-.07-.12-.06a1.07,1.07,0,0,1-1.05-.24.6.6,0,0,1,.81-.57A.62.62,0,0,1,743.1,950.3Z" transform="translate(-711.86 -919.24)"/><path class="cls-3" d="M779.7,997.55a2.58,2.58,0,0,1-.11-.43s.1-.16.16-.16a.82.82,0,0,1,.77.64.57.57,0,0,1-.14.36c-.16.14-.33.08-.46-.09S779.82,997.71,779.7,997.55Z" transform="translate(-711.86 -919.24)"/><path class="cls-3" d="M743.79,1047.67l-.6-1,1.13-.15A1.13,1.13,0,0,1,743.79,1047.67Z" transform="translate(-711.86 -919.24)"/><path class="cls-3" d="M734.88,967c-.1-.2-.31-.36-.26-.63a1.22,1.22,0,0,1,1,.14c.5.22.28.47,0,.69h0a2,2,0,0,1-.78-.2Z" transform="translate(-711.86 -919.24)"/><path class="cls-3" d="M780.26,946.68c-.15-.25-.28-.51,0-.72a.34.34,0,0,1,.48.07.58.58,0,0,1,0,.84C780.58,947,780.39,946.87,780.26,946.68Z" transform="translate(-711.86 -919.24)"/><path class="cls-3" d="M781.46,992.09a.46.46,0,0,0-.49,0,5.16,5.16,0,0,1-1.67.68c0-.13,0-.32.12-.36a15.28,15.28,0,0,1,1.79-.73C781.51,991.57,781.54,991.85,781.46,992.09Z" transform="translate(-711.86 -919.24)"/><path class="cls-3" d="M778.21,996.52a.26.26,0,0,1,0-.37.57.57,0,0,1,.83,0,.26.26,0,0,1,0,.37A.58.58,0,0,1,778.21,996.52Z" transform="translate(-711.86 -919.24)"/><path class="cls-3" d="M779.46,933.57c.07,0,.16-.12.22-.1.36.1.82,0,1.05.43,0,0,0,.08-.07.11C780.32,934.26,780.17,934.2,779.46,933.57Z" transform="translate(-711.86 -919.24)"/><path class="cls-3" d="M727.21,954.14a1.12,1.12,0,0,1-1,1C726.31,954.25,726.31,954.25,727.21,954.14Z" transform="translate(-711.86 -919.24)"/><path class="cls-3" d="M775.39,1025.78c.43.88.41.91-.63,1,0-.28,0-.53.28-.67C775.19,1026.1,775.27,1025.91,775.39,1025.78Z" transform="translate(-711.86 -919.24)"/><path class="cls-3" d="M734.89,961.37c-.19-.35-.86-.55-.35-1.1.2.47.59.21.9.25A1.22,1.22,0,0,1,734.89,961.37Z" transform="translate(-711.86 -919.24)"/><path class="cls-3" d="M778.54,993.27c0,.05,0,.1,0,.13a1,1,0,0,1-1.11.11.24.24,0,0,1,0-.22,1.16,1.16,0,0,1,1-.13S778.52,993.23,778.54,993.27Z" transform="translate(-711.86 -919.24)"/><path class="cls-3" d="M772.31,1037.35c0-.63.66-.65,1-1,.06.35-.22.56-.29.86C772.89,1037.74,772.58,1037.51,772.31,1037.35Z" transform="translate(-711.86 -919.24)"/><path class="cls-3" d="M792.35,1031.58c-.11.07-.23.11-.34,0s.06-.5.33-.6a.22.22,0,0,1,.32.12C792.74,1031.28,792.64,1031.43,792.35,1031.58Z" transform="translate(-711.86 -919.24)"/><path class="cls-3" d="M725,1021l-.59-1,.8,0C725.17,1020.4,725.1,1020.71,725,1021Z" transform="translate(-711.86 -919.24)"/><path class="cls-3" d="M718.46,1026.43c.51-.21.85-.83,1.53-.63C719.48,1026,719.14,1026.63,718.46,1026.43Z" transform="translate(-711.86 -919.24)"/><path class="cls-3" d="M788.29,1034.32a.36.36,0,0,1-.37-.28c0-.15,0-.23.19-.22a.33.33,0,0,1,.33.32C788.44,1034.2,788.34,1034.26,788.29,1034.32Z" transform="translate(-711.86 -919.24)"/><path class="cls-3" d="M772.17,1017.48l-1.16.7A.87.87,0,0,1,772.17,1017.48Z" transform="translate(-711.86 -919.24)"/><path class="cls-3" d="M721.85,992.06l-.44-.72a.47.47,0,0,1,.76.19Z" transform="translate(-711.86 -919.24)"/><path class="cls-3" d="M727.05,959.56a3.79,3.79,0,0,1,.34-.2c.36-.17.36.06.31.31a.63.63,0,0,1-.12.23C727.31,959.94,727.17,959.77,727.05,959.56Z" transform="translate(-711.86 -919.24)"/><path class="cls-3" d="M754.18,1006a1.24,1.24,0,0,1-.36.11c-.19,0-.3-.15-.37-.32s0-.11,0-.12a.35.35,0,0,1,.46,0,1.74,1.74,0,0,1,.25.29Z" transform="translate(-711.86 -919.24)"/><path class="cls-3" d="M776.44,929.67c.41-.1.51.51.92.42-.06.43-.26.45-.52.16A4,4,0,0,1,776.44,929.67Z" transform="translate(-711.86 -919.24)"/><path class="cls-3" d="M767.39,1029.4c-.15.1-.3.2-.46.29a4.05,4.05,0,0,1-.21-.35.38.38,0,0,1,0-.25.21.21,0,0,1,.32,0A3.33,3.33,0,0,1,767.39,1029.4Z" transform="translate(-711.86 -919.24)"/><path class="cls-3" d="M774.24,928.69a.81.81,0,0,1,.91.44h0c-.51.31-.7-.09-.91-.44Z" transform="translate(-711.86 -919.24)"/><path class="cls-3" d="M778.5,953.66a.83.83,0,0,1-.92-.41C778.08,952.92,778.27,953.33,778.5,953.66Z" transform="translate(-711.86 -919.24)"/><path class="cls-3" d="M811.22,1011.59c-.09-.18-.11-.36,0-.48s.24,0,.29.14.09.35-.11.43S811.3,1011.62,811.22,1011.59Z" transform="translate(-711.86 -919.24)"/><path class="cls-3" d="M752.6,1008.61c-.2.09-.42.24-.57-.05a.44.44,0,0,1,0-.37c.11-.16.23,0,.31.08s.15.23.22.35Z" transform="translate(-711.86 -919.24)"/><path class="cls-3" d="M809.09,1016.14c-.14,0-.26-.06-.26-.2s.14-.3.32-.35.17,0,.17.14S809.29,1016.08,809.09,1016.14Z" transform="translate(-711.86 -919.24)"/><path class="cls-3" d="M797.52,1000.45a.73.73,0,0,1,.11-.63.21.21,0,0,1,.33,0,.24.24,0,0,1,0,.23,5,5,0,0,1-.48.42Z" transform="translate(-711.86 -919.24)"/><path class="cls-3" d="M797.51,1000.45a.66.66,0,0,1-.11.62.21.21,0,0,1-.33,0,.26.26,0,0,1,0-.24,6.12,6.12,0,0,1,.48-.41Z" transform="translate(-711.86 -919.24)"/><path class="cls-3" d="M724.15,991.63a.67.67,0,0,1,.06.12c.12.25.2.49-.08.67,0,0-.09,0-.12,0-.28-.33-.15-.56.14-.75Z" transform="translate(-711.86 -919.24)"/><path class="cls-3" d="M752.46,971.12l-1.16.72A.89.89,0,0,1,752.46,971.12Z" transform="translate(-711.86 -919.24)"/><path class="cls-3" d="M751.14,966.94c.5.2.5.2.07.62A.55.55,0,0,1,751.14,966.94Z" transform="translate(-711.86 -919.24)"/><path class="cls-3" d="M775.62,928.84c.06.29,0,.6.21.86-.4,0-.5-.32-.67-.57h0Z" transform="translate(-711.86 -919.24)"/><path class="cls-3" d="M768.93,1028.8c-.35.14-.61.55-1.08.33C768.2,1029,768.45,1028.53,768.93,1028.8Z" transform="translate(-711.86 -919.24)"/><path class="cls-3" d="M712.75,1034.28a1.82,1.82,0,0,1,.11.38c0,.06-.09.17-.15.17s-.26-.11-.2-.25.16-.2.25-.3Z" transform="translate(-711.86 -919.24)"/><path class="cls-3" d="M765,1033.86c.15.27.42.52.22.87C765.09,1034.45,764.83,1034.21,765,1033.86Z" transform="translate(-711.86 -919.24)"/><path class="cls-3" d="M725.18,1022.27c.49.2.49.2.06.62h0l-.07-.63Z" transform="translate(-711.86 -919.24)"/><path class="cls-3" d="M766.61,1030.21l-.07-.12-.07-.12.46-.28.15.24Z" transform="translate(-711.86 -919.24)"/><path class="cls-3" d="M751.22,972.22l.29.5C751.16,972.7,751.05,972.54,751.22,972.22Z" transform="translate(-711.86 -919.24)"/><path class="cls-3" d="M720.06,993.83a.53.53,0,0,1,.08.62A.53.53,0,0,1,720.06,993.83Z" transform="translate(-711.86 -919.24)"/><path class="cls-3" d="M780.31,996.4s-.1,0-.12,0-.07-.13,0-.17.08,0,.12,0Z" transform="translate(-711.86 -919.24)"/><path class="cls-3" d="M818,989.88s-.08,0-.1-.08,0-.17.12-.11.05.08.05.11S818,989.85,818,989.88Z" transform="translate(-711.86 -919.24)"/><path class="cls-3" d="M735.66,970.67s-.09,0-.1-.06,0-.16.07-.14a.14.14,0,0,1,.08.1S735.68,970.63,735.66,970.67Z" transform="translate(-711.86 -919.24)"/><path class="cls-3" d="M714.09,1031.79c0-.41.28-.54.58-.63s.34.08.35.3-.06.38-.3.28a.67.67,0,0,0-.63,0Z" transform="translate(-711.86 -919.24)"/><path class="cls-3" d="M742.17,1006.76c.26-.15.51-.36.86-.26a.48.48,0,0,1,.33.64.41.41,0,0,1-.53.27C742.48,1007.33,742.34,1007,742.17,1006.76Z" transform="translate(-711.86 -919.24)"/><path class="cls-3" d="M804.09,954.13s0,.09,0,.13c0,.23,0,.46-.24.56a.18.18,0,0,1-.28-.16c0-.26.22-.34.39-.46Z" transform="translate(-711.86 -919.24)"/><path class="cls-3" d="M819.91,1008.64c.08,0,.19,0,.22.08a.17.17,0,0,1-.13.29.27.27,0,0,1-.19-.16C819.79,1008.8,819.87,1008.71,819.91,1008.64Z" transform="translate(-711.86 -919.24)"/></g><rect class="cls-4" x="16.15" y="71.75" width="106.98" height="13" rx="6.5"/></g></g></svg>